<?xml version="1.0" encoding="utf-8"?>
<!-- Generator: Adobe Illustrator 18.0.0, SVG Export Plug-In . SVG Version: 6.00 Build 0)  -->
<!DOCTYPE svg PUBLIC "-//W3C//DTD SVG 1.1//EN" "http://www.w3.org/Graphics/SVG/1.1/DTD/svg11.dtd">
<svg version="1.1" id="Layer_1" xmlns="http://www.w3.org/2000/svg" xmlns:xlink="http://www.w3.org/1999/xlink" x="0px" y="0px"
	 viewBox="420.6 0 1079.4 1080" enable-background="new 420.6 0 1079.4 1080" xml:space="preserve">
<path fill="#174056" d="M960,0C661.8,0,420,241.8,420,540s241.8,540,540,540s540-241.8,540-540S1258.2,0,960,0z M1210,750.9
	c-70.2-107-164.1-122.5-250-124.7v77.8c0,8-3.1,16-9.2,22.1c-6.1,6.1-14.1,9.2-22.1,9.2s-16-3.1-22.1-9.2L710,532.2l196.7-194
	c6.1-6.1,14.1-9.1,22.1-9.1s16,3,22.1,9.1c6.1,6.1,9.2,14.1,9.2,22.1v80c140.6,15.6,250,134.6,250,279.4V750.9z"/>
</svg>
